HIERARCHY
ROOT Hips
{
	OFFSET 0.000000 0.000000 0.000000
	CHANNELS 6 Xposition Yposition Zposition Zrotation Yrotation Xrotation 
	JOINT LowerBack
	{
		OFFSET 0.000000 0.000000 0.000000
		CHANNELS 3 Zrotation Yrotation Xrotation
		JOINT Spine
		{
			OFFSET 0.028270 2.035590 -0.193380
			CHANNELS 3 Zrotation Yrotation Xrotation
			JOINT Spine1
			{
				OFFSET 0.056720 2.048850 -0.042750
				CHANNELS 3 Zrotation Yrotation Xrotation
				JOINT Neck
				{
					OFFSET 0.000000 0.000000 0.000000
					CHANNELS 3 Zrotation Yrotation Xrotation
					JOINT Neck1
					{
						OFFSET -0.054170 1.746240 0.172020
						CHANNELS 3 Zrotation Yrotation Xrotation
						JOINT Head
						{
							OFFSET 0.104070 1.761360 -0.123970
							CHANNELS 3 Zrotation Yrotation Xrotation
							End Site
							{
								OFFSET 0.000000 0.000000 0.000000
							}
						}
					}
				}
				JOINT LeftShoulder
				{
					OFFSET 0.000000 0.000000 0.000000
					CHANNELS 3 Zrotation Yrotation Xrotation
					JOINT LeftArm
					{
						OFFSET 3.362410 1.200890 -0.311210
						CHANNELS 3 Zrotation Yrotation Xrotation
						JOINT LeftForeArm
						{
							OFFSET 4.983000 -0.000000 -0.000000
							CHANNELS 3 Zrotation Yrotation Xrotation
							JOINT LeftHand
							{
								OFFSET 3.483560 -0.000000 -0.000000
								CHANNELS 3 Zrotation Yrotation Xrotation
								JOINT LeftFingerBase
								{
									OFFSET 0.000000 0.000000 0.000000
									CHANNELS 3 Zrotation Yrotation Xrotation
									JOINT LeftHandIndex1
									{
										OFFSET 0.715260 -0.000000 -0.000000
										CHANNELS 3 Zrotation Yrotation Xrotation
										End Site
										{
											OFFSET 0.000000 0.000000 0.000000
										}
									}
								}
								JOINT LThumb
								{
									OFFSET 0.000000 0.000000 0.000000
									CHANNELS 3 Zrotation Yrotation Xrotation
									End Site
									{
										OFFSET 0.000000 0.000000 0.000000
									}
								}
							}
						}
					}
				}
				JOINT RightShoulder
				{
					OFFSET 0.000000 0.000000 0.000000
					CHANNELS 3 Zrotation Yrotation Xrotation
					JOINT RightArm
					{
						OFFSET -3.136600 1.374050 -0.404650
						CHANNELS 3 Zrotation Yrotation Xrotation
						JOINT RightForeArm
						{
							OFFSET -5.241900 -0.000000 -0.000000
							CHANNELS 3 Zrotation Yrotation Xrotation
							JOINT RightHand
							{
								OFFSET -3.444170 -0.000000 -0.000000
								CHANNELS 3 Zrotation Yrotation Xrotation
								JOINT RightFingerBase
								{
									OFFSET 0.000000 0.000000 0.000000
									CHANNELS 3 Zrotation Yrotation Xrotation
									JOINT RightHandIndex1
									{
										OFFSET -0.622530 -0.000000 -0.000000
										CHANNELS 3 Zrotation Yrotation Xrotation
										End Site
										{
											OFFSET 0.000000 0.000000 0.000000
										}
									}
								}
								JOINT RThumb
								{
									OFFSET 0.000000 0.000000 0.000000
									CHANNELS 3 Zrotation Yrotation Xrotation
									End Site
									{
										OFFSET 0.000000 0.000000 0.000000
									}
								}
							}
						}
					}
				}
			}
		}
	}
}
}
MOTION
Frames: 12
Frame Time: 0.008333
7.862017 17.045908 1.871631 83.274311 -89.381688 -75.574049 4.070411 -3.410425 -2.875255 0.119609 -3.826333 -4.182966 -7.449015 -3.968007 -3.225078 8.028317 -3.085213 -5.421245 -5.061364 -0.394051 0.555886 0.000000 0.000000 0.000000 -1.068454 0.508367 1.721012 -57.096813 -5.812588 22.009777 -179.278544 -79.193364 -179.967805 -3.824207 3.717453 -0.112255 0.070427 0.383817 0.000000 0.000000 0.000000 0.000000 0.000000 0.000000 0.000000 18.328380 1.340712 2.144593 71.940525 8.922685 9.199205 1.713322 39.631647 -0.010453 -5.009593 8.052168 -0.366025 0.054795 -0.231990 -0.000000 0.000000 0.000000 0.000000 0.000000 0.000000 0.000000 
7.789306 17.076369 1.855920 103.361405 -88.834243 -95.560964 3.337559 -2.924162 -2.669249 -0.008184 -3.269750 -4.159015 -7.236296 -3.399771 -3.327526 7.533696 -2.726326 -5.182431 -4.978611 -0.389142 0.616825 0.000000 0.000000 0.000000 -1.277157 1.166242 1.629459 -58.559265 -5.996831 21.903457 -179.145386 -78.212084 -179.962670 -4.377182 3.519378 -0.120735 0.086339 0.395197 0.000000 0.000000 0.000000 0.000000 0.000000 0.000000 0.000000 17.298301 2.094415 1.988039 72.330222 9.799340 11.262913 1.579913 42.243654 -0.012259 -5.154488 8.748243 -0.409432 0.054599 -0.255356 0.000000 0.000000 0.000000 0.000000 0.000000 0.000000 0.000000 
7.716298 17.105509 1.842097 111.893594 -88.564263 -103.977288 2.896755 -2.427005 -2.494769 -0.084366 -2.728669 -4.134183 -7.038526 -2.841723 -3.399845 7.047966 -2.462502 -4.966728 -4.889722 -0.383876 0.672574 0.000000 0.000000 0.000000 -1.481623 1.863387 1.526478 -59.973166 -6.242853 21.848370 -179.012774 -77.198604 -179.958515 -4.779663 3.356430 -0.124688 0.099111 0.407115 0.000000 0.000000 0.000000 0.000000 0.000000 0.000000 0.000000 16.225548 2.735875 1.807900 72.576803 10.669233 13.129689 1.445522 45.114865 -0.014408 -5.334671 9.431685 -0.457133 0.054867 -0.280265 0.000000 0.000000 0.000000 0.000000 0.000000 0.000000 0.000000 
7.643220 17.133214 1.829950 114.366180 -88.463603 -106.330171 2.574872 -1.963292 -2.345653 -0.137909 -2.232083 -4.108524 -6.848930 -2.325417 -3.450918 6.580429 -2.289229 -4.760298 -4.797629 -0.378614 0.726798 0.000000 0.000000 0.000000 -1.666037 2.529809 1.415032 -61.336869 -6.475483 21.811303 -178.882148 -76.137330 -179.955507 -5.017195 3.216106 -0.124309 0.108402 0.419572 -0.000000 0.000000 0.000000 0.000000 0.000000 0.000000 0.000000 15.136318 3.245155 1.609357 72.686025 11.529312 14.775284 1.308942 48.212371 -0.016939 -5.532651 10.082613 -0.507231 0.055180 -0.306591 0.000000 0.000000 0.000000 0.000000 0.000000 0.000000 0.000000 
7.570070 17.159222 1.819450 113.681715 -88.462078 -105.522175 2.304051 -1.528108 -2.220410 -0.181909 -1.769257 -4.081796 -6.666190 -1.841222 -3.480565 6.139056 -2.183837 -4.562447 -4.704050 -0.373427 0.779436 0.000000 0.000000 0.000000 -1.817268 3.189418 1.295941 -62.655930 -6.704296 21.797895 -178.754899 -75.047748 -179.953764 -5.087788 3.086287 -0.119593 0.113596 0.432651 -0.000000 0.000000 0.000000 0.000000 0.000000 0.000000 0.000000 14.046638 3.651841 1.394085 72.666731 12.363910 16.169873 1.171040 51.516820 -0.019829 -5.727091 10.679757 -0.556726 0.055277 -0.334301 0.000000 0.000000 0.000000 0.000000 0.000000 0.000000 0.000000 
7.497014 17.183383 1.810423 110.560105 -88.528392 -102.278282 2.064736 -1.117773 -2.111103 -0.220423 -1.334603 -4.054272 -6.489595 -1.384351 -3.495047 5.728566 -2.135418 -4.369144 -4.610890 -0.368460 0.831482 0.000000 0.000000 0.000000 -1.921223 3.823349 1.168532 -63.942438 -6.887222 21.784219 -178.633372 -73.921726 -179.953224 -5.009553 2.958551 -0.111445 0.115286 0.446328 -0.000000 0.000000 0.000000 0.000000 0.000000 0.000000 0.000000 12.968277 3.970041 1.168520 72.529709 13.174563 17.309585 1.034955 54.986716 -0.023009 -5.901081 11.212299 -0.603017 0.055075 -0.363305 -0.000000 0.000000 0.000000 0.000000 0.000000 0.000000 0.000000 
7.424202 17.205546 1.802801 105.147051 -88.637264 -96.747351 1.848707 -0.729016 -2.013640 -0.255066 -0.924032 -4.026069 -6.318245 -0.951296 -3.497003 5.351401 -2.131820 -4.180267 -4.519063 -0.363745 0.882852 0.000000 0.000000 0.000000 -1.967109 4.430964 1.034092 -65.207223 -7.005240 21.758468 -178.519189 -72.760933 -179.953722 -4.813048 2.827225 -0.100772 0.114223 0.460526 0.000000 0.000000 0.000000 0.000000 0.000000 0.000000 0.000000 11.906304 4.216773 0.936358 72.288490 13.962261 18.198077 0.903379 58.580026 -0.026392 -6.043475 11.675468 -0.643906 0.054533 -0.393475 -0.000000 0.000000 0.000000 0.000000 0.000000 0.000000 0.000000 
7.351807 17.225592 1.796499 97.399822 -88.760835 -88.888846 1.647821 -0.358841 -1.924766 -0.287173 -0.533736 -3.996704 -6.151005 -0.538767 -3.486224 5.007489 -2.160180 -3.998720 -4.428711 -0.359224 0.932588 0.000000 0.000000 0.000000 -1.948558 5.026367 0.895634 -66.458940 -7.060415 21.719504 -178.412460 -71.571292 -179.955010 -4.536252 2.690866 -0.088778 0.111234 0.475094 0.000000 0.000000 0.000000 0.000000 0.000000 0.000000 0.000000 10.860086 4.410778 0.699065 71.959473 14.729325 18.845549 0.778320 62.255033 -0.029906 -6.148813 12.070189 -0.678292 0.053620 -0.424680 -0.000000 0.000000 0.000000 0.000000 0.000000 0.000000 0.000000 
7.279731 17.243381 1.791568 87.429292 -88.865949 -78.810272 1.448845 -0.005427 -1.845786 -0.318750 -0.160761 -3.965773 -5.986723 -0.144425 -3.459253 4.695430 -2.209406 -3.830671 -4.339016 -0.354746 0.978867 0.000000 0.000000 0.000000 -1.865185 5.635368 0.757323 -67.700493 -7.068323 21.675611 -178.311988 -70.367059 -179.956777 -4.220471 2.550810 -0.076674 0.107123 0.489768 0.000000 0.000000 0.000000 0.000000 0.000000 0.000000 0.000000 9.824901 4.568792 0.455869 71.559536 15.479879 19.269152 0.661315 65.970806 -0.033494 -6.220251 12.403881 -0.706175 0.052390 -0.456805 -0.000000 0.000000 0.000000 0.000000 0.000000 0.000000 0.000000 
7.208191 17.258859 1.788046 75.525058 -88.916504 -66.804334 1.233975 0.327861 -1.774194 -0.351979 0.193289 -3.933396 -5.822463 0.229239 -3.418131 4.410424 -2.277366 -3.677890 -4.249348 -0.350239 1.021203 0.000000 0.000000 0.000000 -1.717964 6.247792 0.621951 -68.934127 -7.007643 21.613320 -178.217913 -69.141671 -179.958673 -3.907046 2.409169 -0.065370 0.103358 0.504252 -0.000000 0.000000 0.000000 0.000000 0.000000 0.000000 0.000000 8.794043 4.693588 0.209117 71.105507 16.227462 19.500800 0.554095 69.678324 -0.037142 -6.270959 12.690252 -0.729557 0.051075 -0.489745 0.000000 0.000000 0.000000 0.000000 0.000000 0.000000 0.000000 
7.137328 17.271989 1.786062 63.390709 -88.882287 -54.574140 0.986525 0.636344 -1.710445 -0.388829 0.525325 -3.898939 -5.656651 0.578647 -3.359828 4.147808 -2.356566 -3.545904 -4.158203 -0.345523 1.057939 0.000000 0.000000 0.000000 -1.514672 6.882601 0.494655 -70.153718 -6.896909 21.541684 -178.127932 -67.908335 -179.960391 -3.628955 2.269162 -0.055575 0.100665 0.518265 0.000000 0.000000 0.000000 0.000000 0.000000 0.000000 0.000000 7.758594 4.793450 -0.043290 70.614234 16.978543 19.564978 0.457378 73.340769 -0.040906 -6.317075 12.944847 -0.751037 0.049827 -0.523458 -0.000000 0.000000 0.000000 0.000000 0.000000 0.000000 0.000000 
7.066986 17.282715 1.785727 52.009846 -88.747114 -43.097613 0.707789 0.908781 -1.660029 -0.428057 0.824012 -3.861279 -5.489807 0.892442 -3.276020 3.904299 -2.439247 -3.443303 -4.063857 -0.340351 1.086598 0.000000 0.000000 0.000000 -1.267601 7.576802 0.381934 -71.348505 -6.784355 21.488826 -178.036766 -66.695919 -179.961700 -3.408610 2.132611 -0.047487 0.099039 0.531730 0.000000 0.000000 0.000000 0.000000 0.000000 0.000000 0.000000 6.711398 4.871744 -0.307639 70.100623 17.735513 19.482955 0.371509 76.931445 -0.044902 -6.376849 13.183541 -0.773517 0.048779 -0.557876 0.000000 0.000000 0.000000 0.000000 0.000000 0.000000 0.000000 
